@startuml lns_operators

!include ./style.iuml

skinparam linetype ortho


abstract class DestroyOperator {
    Problem problem
    Solution solution
    int number_requests_to_remove
    destroy()
}

class RandomDestroyOperator {
    Solution destroy()
}

class HighestCostDestroyOperator {
    Solution destroy()
    Solution _destroy_highest_cost_edges()
    Solution _destroy_highest_cost_requests()
}

' left to right direction

'Extensions

DestroyOperator <|-- RandomDestroyOperator
DestroyOperator <|-- HighestCostDestroyOperator

'Hidden links for visualization

hide empty members
@enduml
